<svg width="212" height="166" viewBox="0 0 212 166" fill="none" xmlns="http://www.w3.org/2000/svg">
<g clip-path="url(#clip0)">
<path d="M173.458 11.5959C171.467 12.3803 170.212 13.9287 170.656 15.0543C180.797 40.952 151.963 76.5345 106.2 94.5946L35.5876 122.41L64.4373 86.8143C65.5015 85.4599 64.9537 84.1851 63.2135 83.9672C61.5158 83.7548 59.301 84.6272 58.2045 85.9403L24.5756 127.44C23.479 128.79 23.9846 130.081 25.7046 130.325C25.7071 130.325 25.71 130.325 25.7125 130.326L78.6095 137.741C80.3119 138.006 82.6028 137.13 83.7272 135.783C84.8512 134.437 84.3826 133.132 82.6805 132.867C82.6447 132.861 82.6088 132.856 82.5722 132.851L37.1933 126.486L107.806 98.671C157.548 79.0404 188.89 40.3636 177.866 12.2139C177.422 11.0885 175.449 10.8116 173.458 11.5959Z" fill="#2196F3"/>
<path d="M81.3874 137.33C80.4309 137.708 79.4283 137.856 78.6004 137.74L25.7034 130.324C23.9825 130.083 23.4743 128.793 24.5681 127.442L58.197 85.943C59.3211 84.5971 61.6123 83.7203 63.3146 83.985C64.975 84.2434 65.4683 85.4955 64.4301 86.8167L32.7855 125.868L82.5616 132.846C84.2845 133.086 84.7955 134.375 83.7034 135.726C83.178 136.376 82.3449 136.953 81.3874 137.33Z" fill="black"/>
<path d="M107.807 98.6706L28.491 129.914C26.4999 130.698 24.5261 130.421 24.0827 129.296C23.6394 128.17 24.8941 126.622 26.8852 125.837L106.201 94.5942C151.964 76.5339 180.798 40.9514 170.656 15.0539C170.213 13.9283 171.467 12.3798 173.459 11.5955C175.45 10.8112 177.423 11.0879 177.867 12.2135C188.891 40.3633 157.549 79.0403 107.807 98.6706Z" fill="black"/>
</g>
<defs>
<clipPath id="clip0">
<rect width="185.997" height="105.148" fill="white" transform="translate(0 68.168) rotate(-21.5)"/>
</clipPath>
</defs>
</svg>
