<svg width="145" height="71" viewBox="0 0 145 71" fill="none" xmlns="http://www.w3.org/2000/svg">
<path d="M140.529 52.5164C139.708 53.0862 138.727 54.0234 138.58 55.1962C138.495 55.8941 138.726 56.525 139.043 57.0772C139.193 57.3388 139.364 57.5885 139.533 57.8325C139.641 57.9898 139.955 58.5842 140.147 58.7368C140.865 58.1081 141.782 56.5307 141.782 56.5307C141.77 56.8814 141.612 57.8442 140.777 58.8727C144.6 59.3126 145.542 56.5366 144.72 53.8322C143.86 50.9988 142.928 50.2375 142.928 50.2375C142.928 50.2375 142.133 51.3987 140.529 52.5164Z" fill="#D90000"/>
<path d="M59.1997 62.5075L66.388 46.4696C66.7579 45.6361 67.0357 44.9103 67.2209 44.2917C67.4061 43.6732 67.4987 43.1492 67.4987 42.7189C67.4987 42.1813 67.3531 41.8184 67.0624 41.6301L67.1417 40.9849H75.8707V41.5899C74.5218 41.8587 73.5295 42.3089 72.8947 42.9406C72.2598 43.5727 71.9424 44.5605 71.9424 45.9049L72.8355 60.5849C72.8355 63.4618 73.0798 65.2904 73.5696 66.07C74.0521 66.8497 75.3614 67.4275 77.4973 67.804V68.409H64.4435V67.804C66.2157 67.5352 67.3927 67.1854 67.975 66.7556C68.8213 66.137 69.2447 65.0211 69.2447 63.408L68.1731 45.7841L57.9764 68.409H57.5397L48.1363 46.7117C47.9511 48.3516 47.7463 50.2403 47.5215 52.3779C47.2967 54.5155 47.1244 56.478 47.0055 58.2663C46.8867 60.0541 46.827 61.8351 46.827 63.6098C46.827 64.7121 47.0122 65.5053 47.3826 65.989C48.0437 66.8497 49.4455 67.4547 51.5882 67.804V68.409H40.5184V67.804C42.1318 67.5352 43.2429 66.9438 43.851 66.0298C44.2744 65.4112 44.6448 64.1342 44.9622 62.198L46.4304 50.8656L46.9459 45.3805C47.0518 44.1574 46.6552 43.223 45.7559 42.5845C45.0151 42.0537 43.957 41.7374 42.5814 41.6301V40.9849H51.1519L51.1915 41.4283C50.98 41.6704 50.8741 42.0265 50.8741 42.5039C50.8741 42.9609 50.98 43.5189 51.1915 44.184C51.2975 44.527 51.4559 44.9302 51.6674 45.3805L59.1997 62.5075ZM84.1233 59.1332C84.1233 61.069 84.7519 62.6754 86.0082 63.9523C87.2644 65.2297 88.8453 65.8682 90.7497 65.8682C92.0194 65.8682 93.1568 65.5927 94.162 65.0415C95.1668 64.4903 96.159 63.6768 97.1376 62.6016C94.7567 59.7513 92.9186 57.6545 91.6223 56.3101C90.4586 55.1001 89.2152 53.9576 87.8926 52.882C86.7819 53.5005 85.8759 54.3743 85.1748 55.5033C84.4741 56.6327 84.1233 57.8427 84.1233 59.1332ZM90.7893 50.7444C91.6356 50.0457 92.3167 49.2995 92.8327 48.5063C93.3482 47.7131 93.6064 46.8189 93.6064 45.8244C93.6064 44.7221 93.2757 43.761 92.6146 42.9406C91.953 42.1207 91.0934 41.7107 90.0352 41.7107C89.03 41.7107 88.23 42.0537 87.6348 42.7392C87.0396 43.4248 86.7423 44.2782 86.7423 45.2999C86.7423 46.0529 86.9537 46.7384 87.3771 47.357C87.6678 47.7868 88.1704 48.338 88.8849 49.0104L90.7893 50.7444ZM86.9804 51.9141C85.8955 50.9195 85.1418 50.1394 84.7185 49.5751C83.9782 48.5801 83.6078 47.5583 83.6078 46.5099C83.6078 44.6818 84.3085 43.223 85.7108 42.1342C87.1126 41.0451 88.7393 40.5007 90.5908 40.5007C92.2308 40.5007 93.646 40.9039 94.8364 41.7107C96.2116 42.6519 96.8994 43.9288 96.8994 45.542C96.8994 46.9131 96.3442 48.0828 95.2331 49.0507C94.6245 49.5882 93.4608 50.2742 91.7416 51.1077L91.3049 51.3494L99.1613 59.8188C100.166 58.2594 100.867 57.1436 101.264 56.4712C102.19 54.8313 102.653 53.6214 102.653 52.8417C102.653 52.3308 102.229 51.9543 101.383 51.7123C100.351 51.524 99.7035 51.4032 99.4387 51.3494V50.7444H111.144V51.3494C109.212 51.3494 107.454 51.9277 105.867 53.0838C104.597 53.9978 103.288 55.4092 101.938 57.3183L99.7561 60.4238C101.423 62.6822 102.719 64.2347 103.645 65.075C105.285 66.547 107.03 67.2796 108.882 67.2796C109.887 67.2796 110.945 67.1452 112.056 66.8764L112.254 67.4814C110.905 67.9656 109.663 68.3217 108.525 68.5502C107.388 68.7787 106.184 68.8932 104.914 68.8932L101.938 68.5298C101.515 68.5298 100.907 67.8311 100.114 66.4329C99.505 65.3306 98.6716 64.2284 97.6139 63.1256C96.0268 65.0347 94.7305 66.3655 93.7253 67.1185C92.112 68.3013 90.3794 68.8932 88.5279 68.8932C86.7556 68.8932 85.1156 68.2882 83.6078 67.0782C81.7563 65.5994 80.8303 63.6365 80.8303 61.1898C80.8303 59.2812 81.4914 57.5201 82.814 55.9069C83.8193 54.6969 85.3137 53.4734 87.2978 52.2367L86.9804 51.9141ZM138.997 49.2928H138.402C138.005 46.9 137.158 45.0311 135.862 43.6868C134.434 42.208 132.569 41.4686 130.268 41.4686C126.75 41.4686 123.946 42.7591 121.856 45.3402C119.899 47.7602 118.92 50.7982 118.92 54.4549C118.92 58.2997 120.15 61.5396 122.61 64.1745C124.938 66.675 127.623 67.9248 130.665 67.9248C133.019 67.9248 134.95 67.1049 136.458 65.465C137.515 64.3089 138.6 62.3862 139.711 59.6979L140.267 59.9396C139.817 62.3057 139.089 64.7121 138.084 67.1587C136.868 67.7502 135.578 68.1873 134.216 68.4696C132.853 68.752 131.445 68.8932 129.99 68.8932C125.599 68.8932 121.949 67.7099 119.039 65.3438C115.891 62.7899 114.318 59.3215 114.318 54.939C114.318 51.0403 115.667 47.7334 118.365 45.0176C121.354 42.0066 125.334 40.5007 130.308 40.5007C131.921 40.5007 133.449 40.6686 134.89 41.0048C136.332 41.341 137.701 41.8989 138.997 42.6786V49.2928Z" fill="url(#paint0_linear)"/>
<path fill-rule="evenodd" clip-rule="evenodd" d="M38.5231 57.8757C38.1618 57.8757 37.8698 57.5777 37.8698 57.2114L37.8471 32.3042C37.8471 31.937 38.1618 31.3397 38.5231 31.3397C38.8847 31.3397 40.4081 31.1551 38.5016 31.7356C37.7183 31.9744 39.1779 57.2114 39.1779 57.2114C39.1779 57.5777 38.8847 57.8757 38.5231 57.8757Z" fill="#1B1918"/>
<path fill-rule="evenodd" clip-rule="evenodd" d="M19.9646 57.8757C19.6033 57.8757 19.3109 57.5777 19.3109 57.2114C19.3109 57.2114 19.9646 42.3628 19.2018 39.3342C18.439 36.303 19.4106 38.947 19.6033 39.2581C20.6917 41.0323 20.619 57.2114 20.619 57.2114C20.619 57.5777 20.3259 57.8757 19.9646 57.8757Z" fill="#1B1918"/>
<path fill-rule="evenodd" clip-rule="evenodd" d="M24.2039 53.8876C23.8426 53.8876 23.5503 53.5896 23.5503 53.2233C23.5503 53.2233 24.3618 36.2324 23.5503 32.005C23.2193 30.2783 23.9625 31.0658 24.2039 31.3395C25.0154 32.2622 24.8575 53.2233 24.8575 53.2233C24.8575 53.5896 24.5652 53.8876 24.2039 53.8876Z" fill="#1B1918"/>
<path fill-rule="evenodd" clip-rule="evenodd" d="M29.2461 70.026C29.0471 70.026 28.8597 69.9334 28.7364 69.775L19.444 58.0369C19.2993 57.8523 19.2603 57.6004 19.3456 57.3794C19.4302 57.1571 19.6238 57 19.8565 56.9635C21.7943 56.6667 23.3165 55.1105 23.5548 53.1848C23.5634 53.109 23.587 53.0363 23.6208 52.9681C23.7471 52.7075 24.033 52.5612 24.313 52.6096C24.4256 52.6292 24.5274 52.6766 24.6118 52.7449C24.7513 52.8406 24.8488 52.9912 24.8715 53.1782C25.1399 55.3645 27.0203 57.0175 29.2461 57.0209C31.4673 57.0175 33.3477 55.3645 33.6182 53.1782C33.6584 52.8459 33.9375 52.5952 34.2675 52.5952H34.2731C34.3942 52.5952 34.5055 52.6314 34.6031 52.6897C34.7156 52.7502 34.8107 52.8437 34.869 52.9646C34.9036 53.0329 34.9263 53.109 34.9352 53.1848C35.1754 55.1105 36.6954 56.6667 38.6335 56.9635C38.866 57 39.0598 57.1571 39.1442 57.3794C39.2294 57.6004 39.1926 57.8523 39.0457 58.0369L29.7556 69.775C29.6301 69.9334 29.4452 70.026 29.2461 70.026Z" fill="#1B1918"/>
<path fill-rule="evenodd" clip-rule="evenodd" d="M21.1036 58.012L29.2455 68.2996L37.3865 58.012C36.0501 57.5325 34.9432 56.5723 34.278 55.3428C33.3051 57.1422 31.3998 58.3465 29.2455 58.3509C27.0903 58.3465 25.1838 57.1422 24.2121 55.345C23.5466 56.5723 22.4387 57.5325 21.1036 58.012Z" fill="#1B1918"/>
<path fill-rule="evenodd" clip-rule="evenodd" d="M29.2461 70.026C29.0471 70.026 28.8597 69.9334 28.7364 69.775L24.1735 64.0153C24.033 63.8373 23.9928 63.5976 24.0665 63.3831C24.1379 63.1677 24.3155 63.0047 24.5339 62.952C27.6457 62.2053 30.8334 62.2053 33.9572 62.951C34.1746 63.0046 34.3519 63.1677 34.4234 63.3818C34.4979 63.5976 34.4568 63.8373 34.3163 64.0153L29.7556 69.775C29.6302 69.9333 29.4452 70.026 29.2461 70.026V70.026Z" fill="#1B1918"/>
<path d="M25.8628 64.0276L29.2461 68.3002L32.6272 64.0276C30.3745 63.6151 28.111 63.6151 25.8628 64.0276Z" fill="url(#paint1_linear)"/>
<path d="M41.8411 27.7451C41.8411 27.7451 37.3312 29.9567 37.894 32.6577C39.2865 31.8715 43.3461 33.7058 45.7902 31.393C51.1355 26.3276 48.1513 20.0959 48.1513 20.0959C47.6277 24.4942 43.1406 22.0747 39.9324 24.9649C37.0076 27.5955 36.7859 30.0446 36.5859 31.4865C36.7525 31.0082 38.5841 28.2586 41.8411 27.7451Z" fill="#D90000"/>
<path fill-rule="evenodd" clip-rule="evenodd" d="M13.1323 22.0806C19.6557 23.5215 24.1514 29.1184 23.8702 34.8659C24.1471 34.5822 24.2498 34.0563 24.5149 33.7486C24.502 28.2121 20.2519 23.1496 13.935 21.7542C10.6176 21.0194 7.30149 21.4318 4.49573 22.6901C7.12174 21.6959 10.1232 21.4175 13.1323 22.0806Z" fill="#1B1918"/>
<path d="M20.9788 24.2393C20.9788 24.2393 20.5289 18.7051 15.3213 16.1824L15.6424 17.1061C15.6424 17.1061 10.7734 13.3591 4.75764 18.5667C0.484913 22.2663 0 25.2744 0 25.2744C0 25.2744 1.39491 23.7907 3.85962 26.8393C5.20544 28.5066 9.21657 29.9781 12.4852 28.4418C15.7528 26.912 16.5644 26.5797 16.5644 26.5797L15.463 28.0876C15.463 28.0876 20.2182 24.5265 21.7904 26.4069C21.7904 26.4069 14.806 17.7374 7.18556 20.8156C7.18556 20.8156 13.6798 17.0466 20.9788 24.2393Z" fill="#D90000"/>
<path fill-rule="evenodd" clip-rule="evenodd" d="M33.7219 15.181C33.9728 15.2063 34.2206 15.2371 34.4555 15.269C34.447 12.8716 34.4578 11.2483 34.4954 10.8633C34.715 8.72088 34.6396 7.98389 34.2779 7.98389C33.9166 7.98389 32.853 8.20525 33.4784 10.5312C33.5931 10.959 33.671 12.6736 33.7219 15.181Z" fill="#1B1918"/>
<path fill-rule="evenodd" clip-rule="evenodd" d="M33.8022 27.3035C33.7958 39.2748 33.6335 53.2224 33.6335 53.2224C33.6335 53.5896 33.9267 53.8876 34.2859 53.8876C34.6472 53.8876 34.9416 53.5896 34.9416 53.2224C34.9416 53.2224 34.7067 38.9238 34.5607 26.925C34.3184 27.0669 34.0642 27.1913 33.8022 27.3035Z" fill="#1B1918"/>
<path d="M24.5906 28.4615C24.5906 28.4615 22.0498 24.4679 24.2885 19.9865L24.5461 20.7849C24.5461 20.7849 25.9235 15.6565 32.6837 15.9908C37.4901 16.2317 39.3641 18.019 39.3641 18.019C39.3641 18.019 37.6545 17.7537 37.5517 21.1303C37.4944 22.9756 35.5241 26.1068 32.5214 26.803C29.5148 27.4991 28.7897 27.7049 28.7897 27.7049L30.3131 28.1447C30.3131 28.1447 25.2558 28.2526 25.1543 30.3629C25.1543 30.3629 25.4377 20.7683 32.1914 18.8096C32.1914 18.8096 25.8478 19.7006 24.5906 28.4615Z" fill="#D90000"/>
<path d="M46.5518 19.0637C46.5518 19.0637 48.6334 17.2986 47.0192 14.129C45.8712 11.8788 44.6385 11.3628 44.6385 11.3628C44.6385 11.3628 45.1311 12.1251 43.5847 12.9026C42.7419 13.3306 41.7141 14.9495 42.0398 16.5385C42.3634 18.1288 42.425 18.5216 42.425 18.5216L41.8914 17.8869C41.8914 17.8869 42.794 20.0052 42.1435 20.7045C42.4919 20.4616 42.8317 20.1889 43.1617 19.8808C44.9818 18.1752 45.8905 15.9481 45.727 14.1037C46.2304 15.8776 46.0571 18.3311 43.5546 20.7188C44.3649 20.6936 45.8645 20.4364 46.9769 19.0154L46.5518 19.0637Z" fill="url(#paint2_linear)"/>
<path d="M19.6348 36.7336C19.6348 36.7336 19.3134 33.9973 15.8188 33.6466C13.3354 33.4 12.2404 34.17 12.2404 34.17C12.2404 34.17 13.1363 34.1666 12.9385 35.9065C12.8302 36.8602 13.6059 38.6153 15.0959 39.2036C16.5837 39.7931 16.9407 39.9549 16.9407 39.9549L16.127 40.0637C16.127 40.0637 18.3669 40.4497 18.5887 41.3859C18.5776 40.9556 18.5377 40.5158 18.462 40.0693C18.0476 37.5903 16.7036 35.6019 15.0959 34.7352C16.8303 35.2708 18.7595 36.7579 19.3686 40.1912C19.7897 39.4864 20.3933 38.0666 19.8275 36.3442L19.6348 36.7336Z" fill="url(#paint3_linear)"/>
<path d="M24.563 14.875C24.563 14.875 24.9795 12.1522 21.7075 10.8553C19.3857 9.93498 18.124 10.3758 18.124 10.3758C18.124 10.3758 18.9907 10.619 18.335 12.2388C17.978 13.1242 18.2571 15.0312 19.536 16.007C20.8116 16.9834 21.1125 17.2375 21.1125 17.2375L20.301 17.1165C20.301 17.1165 22.3525 18.1054 22.3188 19.0665C22.424 18.6507 22.5028 18.2142 22.5494 17.7644C22.8068 15.2635 22.0418 12.9792 20.723 11.7032C22.2529 12.6974 23.7158 14.6574 23.388 18.1294C23.9799 17.5664 24.9396 16.3643 24.8528 14.553L24.563 14.875Z" fill="#D90000"/>
<path d="M37.7923 7.84336C37.7923 7.84336 39.0896 4.31523 35.0656 1.65815C32.2046 -0.227933 30.3957 0.00961763 30.3957 0.00961763C30.3957 0.00961763 31.4906 0.577003 30.1718 2.56224C29.451 3.64779 29.3072 6.27834 30.7505 7.94466C32.1961 9.61066 32.5282 10.0344 32.5282 10.0344L31.471 9.64592C31.471 9.64592 33.9523 11.5442 33.6459 12.8211C33.8992 12.2942 34.1209 11.7347 34.3071 11.143C35.3349 7.86766 34.9325 4.59581 33.5149 2.51703C35.2917 4.27782 36.7145 7.31213 35.3328 11.8696C36.2774 11.2826 37.8895 9.94519 38.2661 7.49355L37.7923 7.84336Z" fill="url(#paint4_linear)"/>
<defs>
<linearGradient id="paint0_linear" x1="-40.2025" y1="-40.1796" x2="-40.2025" y2="-68.5721" gradientUnits="userSpaceOnUse">
<stop offset="0.05"/>
<stop offset="0.12"/>
<stop offset="1" stop-color="white"/>
</linearGradient>
<linearGradient id="paint1_linear" x1="-25.5469" y1="-63.3971" x2="-25.5469" y2="-67.979" gradientUnits="userSpaceOnUse">
<stop offset="0.05"/>
<stop offset="0.12"/>
<stop offset="1" stop-color="white"/>
</linearGradient>
<linearGradient id="paint2_linear" x1="-41.5754" y1="-11.0415" x2="-41.5754" y2="-20.3976" gradientUnits="userSpaceOnUse">
<stop offset="0.05"/>
<stop offset="0.12"/>
<stop offset="1" stop-color="white"/>
</linearGradient>
<linearGradient id="paint3_linear" x1="-11.9245" y1="-33.2766" x2="-11.9245" y2="-41.0646" gradientUnits="userSpaceOnUse">
<stop offset="0.05"/>
<stop offset="0.12"/>
<stop offset="1" stop-color="white"/>
</linearGradient>
<linearGradient id="paint4_linear" x1="-29.3253" y1="0.321102" x2="-29.3253" y2="-12.5" gradientUnits="userSpaceOnUse">
<stop offset="0.05"/>
<stop offset="0.12"/>
<stop offset="1" stop-color="white"/>
</linearGradient>
</defs>
</svg>
