<svg width="200" height="200" viewBox="0 0 200 200" fill="none" xmlns="http://www.w3.org/2000/svg">
<g clip-path="url(#clip0)">
<path d="M175.302 116.153H156.552C154.933 116.153 153.622 117.464 153.622 119.082C153.622 120.7 154.933 122.012 156.552 122.012H175.302C176.92 122.012 178.231 120.7 178.231 119.082C178.231 117.464 176.92 116.153 175.302 116.153Z" fill="#A33F3F"/>
<path d="M175.302 128.195H156.552C154.933 128.195 153.622 129.507 153.622 131.125C153.622 132.743 154.933 134.055 156.552 134.055H175.302C176.92 134.055 178.231 132.743 178.231 131.125C178.231 129.507 176.92 128.195 175.302 128.195Z" fill="#A33F3F"/>
<path d="M175.302 104.11H156.552C154.933 104.11 153.622 105.422 153.622 107.04C153.622 108.658 154.933 109.969 156.552 109.969H175.302C176.92 109.969 178.231 108.658 178.231 107.04C178.231 105.422 176.92 104.11 175.302 104.11Z" fill="#A33F3F"/>
<path d="M132.444 100.3C129.831 100.3 127.705 102.426 127.705 105.039V107.815H120.831C118.218 107.815 116.093 109.941 116.093 112.553V115.059H109.2C106.587 115.059 104.461 117.184 104.461 119.797V133.517C104.461 135.915 106.412 137.865 108.809 137.865H140.848C143.246 137.865 145.196 135.915 145.196 133.517V105.039C145.196 102.426 143.071 100.3 140.458 100.3H132.444ZM116.093 132.006H110.321V120.918H116.093V132.006ZM127.705 132.006H121.952C121.952 128.441 121.952 117.309 121.952 113.674H127.705V132.006ZM139.336 132.006H133.583C133.583 113.057 133.564 107.033 133.564 106.159H139.336V132.006H139.336Z" fill="#A33F3F"/>
<path d="M7.20505 186.159H56.7056C58.324 186.159 59.6353 184.848 59.6353 183.23C59.6353 181.612 58.324 180.3 56.7056 180.3H26.6022V140.942C26.6022 139.324 25.2909 138.012 23.6726 138.012C22.0542 138.012 20.7429 139.324 20.7429 140.942V180.3H7.20505C6.46326 180.3 5.85935 179.697 5.85935 178.954V137.487C5.85935 128.216 12.425 122.139 16.8527 120.305L35.9026 112.866L47.2404 124.203C51.3974 128.361 57.1939 130.958 63.5415 130.958C69.6607 130.958 75.5134 128.531 79.843 124.203L91.0211 113.025V151.799C91.0211 155.944 94.3938 159.317 98.5391 159.317H100.481V180.301H70.3775C68.7591 180.301 67.4478 181.613 67.4478 183.231C67.4478 184.849 68.7591 186.16 70.3775 186.16H119.878C123.851 186.16 127.083 182.928 127.083 178.955V159.317H139.243V168.301C135.619 169.526 133.002 172.957 133.002 176.989C133.002 182.046 137.116 186.16 142.173 186.16C147.23 186.16 151.344 182.046 151.344 176.989C151.344 172.957 148.727 169.526 145.103 168.301V159.317H185.806C189.952 159.317 193.324 155.944 193.324 151.799V125.919C193.324 124.301 192.013 122.989 190.395 122.989C188.776 122.989 187.465 124.301 187.465 125.919V151.799C187.465 152.713 186.721 153.458 185.806 153.458H124.153H98.5395C97.625 153.458 96.8809 152.713 96.8809 151.799C96.8809 149.953 96.8809 85.1493 96.8809 83.3036H187.465V112.247C187.465 113.865 188.776 115.177 190.395 115.177C192.013 115.177 193.324 113.865 193.324 112.247V83.3036H193.326C197.006 83.3036 200 80.3095 200 76.6294V70.9826C200 67.3025 197.006 64.3088 193.326 64.3088H100.975C100.375 61.1142 98.5672 58.2662 95.9996 56.4021C96.2797 55.6225 96.4402 54.7861 96.4402 53.9111V34.9874C96.4402 28.7898 91.0703 24.2402 85.5305 24.6656C84.8411 24.7191 84.0657 24.3659 83.9137 23.5902C82.6305 17.0296 78.5087 13.8402 71.313 13.8402H46.4498C35.7237 13.8402 26.9975 22.5663 26.9975 33.2925V51.4256C26.9975 53.9662 27.9616 56.2857 29.5421 58.0389C27.2643 60.3474 25.8843 63.4545 25.8843 66.6537C25.8843 72.6267 30.5464 77.9419 37.1276 78.6837C38.069 85.4126 41.6776 91.9161 47.4799 96.2446V102.053C44.1842 103.341 18.1839 113.495 14.6933 114.858C14.6769 114.865 14.6605 114.871 14.6441 114.878C7.59138 117.781 0 126.094 0 137.487V178.955C0 182.927 3.23202 186.159 7.20505 186.159ZM142.173 173.677C143.999 173.677 145.485 175.163 145.485 176.989C145.485 178.815 143.999 180.3 142.173 180.3C140.347 180.3 138.861 178.815 138.861 176.989C138.861 175.163 140.347 173.677 142.173 173.677ZM106.34 159.317H121.224V178.955C121.224 179.697 120.62 180.3 119.878 180.3H106.341V159.317H106.34ZM55.8935 123.302C59.3888 119.783 58.1193 121.061 61.6255 117.532C61.6294 117.528 61.6326 117.523 61.6361 117.519C61.8943 117.258 62.1388 116.929 62.2884 116.687H64.7447C64.9017 116.944 65.1536 117.275 65.4083 117.532L71.1564 123.318C66.3548 125.698 60.69 125.692 55.8935 123.302ZM53.3353 102.753C53.3381 102.679 53.3396 102.604 53.3396 102.529V99.5203C59.3834 101.932 66.9181 102.323 73.7267 99.5664L73.7294 102.551C73.7294 102.607 73.7306 102.663 73.7325 102.718C70.3341 106.093 68.8634 107.553 65.565 110.828H61.4693C59.4072 108.781 54.9935 104.399 53.3353 102.753ZM75.9399 119.82C75.3774 119.254 71.0689 114.916 70.4212 114.264L77.2145 107.519C81.3446 109.118 81.1188 109.031 85.1626 110.597L75.9399 119.82ZM91.0215 106.582L79.5887 102.155L79.5837 96.275C83.9911 92.9887 87.3395 88.3579 89.0149 82.9946C89.6481 83.1946 90.3211 83.3036 91.0196 83.3036H91.0215V106.582ZM193.326 70.1673C193.775 70.1673 194.141 70.533 194.141 70.9818V76.6286C194.141 77.0779 193.775 77.4435 193.326 77.4435C188.403 77.4435 96.0387 77.4435 91.0196 77.4435C90.5707 77.4435 90.2051 77.0779 90.2051 76.6286C90.2051 73.4087 90.2051 74.1052 90.2051 70.9818C90.2051 70.5326 90.5707 70.1669 91.0196 70.1669C97.0586 70.1673 187.365 70.1673 193.326 70.1673ZM91.9129 60.7306C93.2864 61.4931 94.3649 62.7924 94.9223 64.3076H91.0196C90.7539 64.3076 90.384 64.3349 90.2051 64.3568V61.2193C90.7856 61.1275 91.4457 60.9287 91.9129 60.7306ZM36.8784 72.7072C33.96 72.0119 31.7436 69.588 31.7436 66.6533C31.7436 64.5099 33.0374 62.3525 34.9803 61.1263C35.442 61.2166 35.9147 61.2763 36.3963 61.2998C36.5569 61.308 36.7174 61.3119 36.878 61.3123V72.7072H36.8784ZM36.8842 55.4525C34.7131 55.4525 32.8569 53.6822 32.8569 51.4252V33.2925C32.8569 25.7972 38.9545 19.6996 46.4498 19.6996H71.313C76.7407 19.6996 77.6266 21.971 78.1634 24.7148C78.8657 28.3062 82.2309 30.7956 85.9797 30.5077C88.15 30.3421 90.5805 32.2417 90.5805 34.9874V53.91C90.5805 54.7529 89.8528 55.4525 89.0379 55.4525C85.918 55.4525 83.4356 52.8756 83.4356 49.8502C83.4356 46.3452 78.7321 45.1913 77.0946 48.2573C74.722 52.6951 70.1267 55.4522 65.1033 55.4522C61.0099 55.4525 40.9842 55.4525 36.8842 55.4525ZM42.7377 75.1603V61.3119H65.1033C70.3568 61.3119 75.3829 59.1889 79.0329 55.4377C80.2317 57.576 82.0985 59.2889 84.3458 60.3017V75.1599C84.3458 86.5766 75.0157 95.625 63.8802 95.625C51.1185 95.6254 42.7377 85.7083 42.7377 75.1603ZM49.7553 107.455C54.208 111.876 52.5135 110.194 56.6131 114.264C53.6388 117.258 54.7158 116.174 51.1189 119.795L41.8619 110.538L49.7553 107.455Z" fill="#A33F3F"/>
</g>
<defs>
<clipPath id="clip0">
<rect width="200" height="200" fill="white"/>
</clipPath>
</defs>
</svg>
